<svg aria-hidden="true" style="position: absolute; width: 0; height: 0; overflow: hidden;" version="1.1" xmlns="http://www.w3.org/2000/svg" xmlns:xlink="http://www.w3.org/1999/xlink">
<defs>
<symbol id="icon-logo" viewBox="0 0 35 32">
<path d="M9.717 14.962c0.010 0.144-0.019 0.284-0.087 0.418-0.058 0.135-0.111 0.255-0.159 0.361l-0.462 0.49-0.274 0.822c-0.106 0.077-0.221 0.154-0.346 0.231-0.115 0.067-0.221 0.139-0.317 0.216-0.106 0.087-0.202 0.183-0.288 0.288-0.077 0.106-0.163 0.197-0.26 0.274s-0.212 0.144-0.346 0.202c-0.125 0.048-0.24 0.106-0.346 0.173-0.192 0.115-0.375 0.236-0.548 0.361-0.163 0.125-0.337 0.245-0.519 0.361-0.048 0.019-0.087 0.043-0.115 0.072-0.019 0.019-0.053 0.038-0.101 0.058-0.029 0.019-0.154 0.058-0.375 0.115s-0.466 0.125-0.736 0.202c-0.26 0.067-0.505 0.13-0.736 0.188s-0.361 0.087-0.389 0.087c-0.173 0.019-0.351 0.029-0.534 0.029s-0.365 0.005-0.548 0.014l-0.216 0.13c-0.106-0.077-0.221-0.149-0.346-0.216s-0.231-0.139-0.317-0.216c-0.096-0.087-0.192-0.183-0.288-0.288-0.096-0.115-0.183-0.221-0.26-0.317-0.048-0.135-0.096-0.264-0.144-0.389-0.048-0.135-0.087-0.264-0.115-0.389l-0.072-0.548c-0.019-0.183-0.038-0.361-0.058-0.534-0.010-0.173-0.024-0.351-0.043-0.534 0.163-0.452 0.308-0.904 0.433-1.356 0.135-0.462 0.298-0.913 0.49-1.356 0.048-0.106 0.091-0.212 0.13-0.317 0.048-0.115 0.096-0.226 0.144-0.332 0.058-0.115 0.12-0.221 0.188-0.317 0.067-0.106 0.125-0.212 0.173-0.317 0.048-0.115 0.087-0.231 0.115-0.346 0.029-0.125 0.067-0.24 0.115-0.346 0.029-0.058 0.077-0.139 0.144-0.245 0.067-0.115 0.139-0.231 0.216-0.346 0.077-0.125 0.149-0.245 0.216-0.361 0.077-0.115 0.139-0.207 0.188-0.274 0.077-0.096 0.154-0.188 0.231-0.274s0.139-0.183 0.188-0.288c0.096-0.163 0.188-0.37 0.274-0.62s0.183-0.471 0.288-0.663c0.115-0.212 0.25-0.409 0.404-0.591 0.163-0.192 0.313-0.389 0.447-0.591 0.144-0.202 0.284-0.423 0.418-0.663l0.635-0.462 0.288 0.288 0.692-0.115 0.433 0.649c-0.019 0.144-0.043 0.308-0.072 0.49-0.019 0.183-0.038 0.37-0.058 0.562-0.010 0.183-0.019 0.365-0.029 0.548 0 0.173 0.010 0.327 0.029 0.462-0.048 0.173-0.12 0.356-0.216 0.548-0.087 0.183-0.188 0.341-0.303 0.476l-0.058 0.779-0.577 0.519-0.072 0.736-0.49 0.577c-0.029 0.135-0.058 0.274-0.087 0.418-0.029 0.135-0.067 0.264-0.115 0.389-0.048 0.115-0.106 0.236-0.173 0.361-0.067 0.115-0.135 0.236-0.202 0.361-0.192 0.163-0.389 0.346-0.591 0.548s-0.385 0.404-0.548 0.606c-0.087 0.106-0.168 0.221-0.245 0.346-0.067 0.115-0.139 0.226-0.216 0.332-0.25 0.317-0.519 0.615-0.808 0.894s-0.572 0.567-0.851 0.865l0.317 0.562c0.202 0.067 0.409 0.13 0.62 0.188s0.423 0.111 0.635 0.159c0.096-0.019 0.207-0.038 0.332-0.058 0.125-0.029 0.255-0.058 0.389-0.087 0.135-0.038 0.264-0.077 0.389-0.115 0.135-0.038 0.245-0.077 0.332-0.115 0.192-0.077 0.413-0.188 0.663-0.332 0.25-0.154 0.462-0.288 0.635-0.404 0.308-0.192 0.62-0.389 0.938-0.591s0.62-0.413 0.909-0.635c0.192-0.144 0.394-0.327 0.606-0.548s0.409-0.428 0.591-0.62c0.192-0.202 0.361-0.365 0.505-0.49 0.154-0.125 0.26-0.173 0.317-0.144zM5.794 8.139c-0.202 0.337-0.418 0.663-0.649 0.981-0.221 0.308-0.428 0.63-0.62 0.966-0.067 0.115-0.125 0.236-0.173 0.361-0.048 0.115-0.111 0.231-0.188 0.346-0.067 0.106-0.139 0.212-0.216 0.317s-0.144 0.221-0.202 0.346c-0.115 0.221-0.221 0.457-0.317 0.707-0.087 0.24-0.183 0.476-0.288 0.707-0.115 0.231-0.25 0.447-0.404 0.649s-0.293 0.418-0.418 0.649l-0.231 0.462c-0.019 0.048-0.038 0.086-0.058 0.115-0.019 0.019-0.038 0.053-0.058 0.101-0.038 0.106-0.058 0.221-0.058 0.346s-0.014 0.24-0.043 0.346c-0.029 0.115-0.072 0.226-0.13 0.332s-0.111 0.212-0.159 0.317c-0.048 0.106-0.087 0.216-0.115 0.332-0.029 0.106-0.063 0.212-0.101 0.317 0.077-0.077 0.159-0.144 0.245-0.202 0.096-0.067 0.188-0.139 0.274-0.216 0.087-0.087 0.168-0.178 0.245-0.274s0.163-0.183 0.26-0.26c0.087-0.077 0.178-0.144 0.274-0.202 0.106-0.067 0.207-0.135 0.303-0.202 0.154-0.212 0.288-0.428 0.404-0.649 0.058-0.106 0.106-0.226 0.144-0.361 0.048-0.135 0.106-0.255 0.173-0.361 0.058-0.106 0.13-0.207 0.216-0.303 0.096-0.096 0.178-0.197 0.245-0.303 0.077-0.106 0.139-0.216 0.188-0.332 0.058-0.115 0.12-0.226 0.188-0.332 0.135-0.212 0.284-0.413 0.447-0.606l0.072-0.909 0.519-0.606 0.072-0.548 0.361-0.505 0.043-0.808-0.245-0.721zM17.664 15.164c0.038 0.144 0.024 0.269-0.043 0.375-0.067 0.096-0.159 0.183-0.274 0.26-0.106 0.077-0.226 0.149-0.361 0.216-0.125 0.058-0.231 0.125-0.317 0.202-0.433 0.096-0.827 0.168-1.183 0.216-0.346 0.038-0.731 0.091-1.154 0.159-0.125 0.019-0.245 0.019-0.361 0-0.106-0.029-0.216-0.038-0.332-0.029-0.067 0-0.13 0-0.188 0-0.058-0.010-0.115-0.010-0.173 0-0.221 0.019-0.365 0.096-0.433 0.231-0.067 0.125-0.125 0.274-0.173 0.447-0.038 0.163-0.091 0.322-0.159 0.476-0.058 0.144-0.188 0.245-0.389 0.303-0.019 0.048-0.014 0.091 0.014 0.13 0.038 0.038 0.067 0.072 0.087 0.101-0.164 0.048-0.274 0.135-0.332 0.26-0.048 0.125-0.091 0.25-0.13 0.375s-0.096 0.231-0.173 0.317c-0.067 0.087-0.202 0.115-0.404 0.087-0.298 0.317-0.649 0.572-1.053 0.764-0.404 0.202-0.822 0.332-1.255 0.389-0.077-0.038-0.154-0.087-0.231-0.144-0.067-0.058-0.139-0.111-0.216-0.159-0.067-0.048-0.144-0.086-0.231-0.115-0.077-0.019-0.168-0.019-0.274 0-0.010-0.202-0.048-0.389-0.115-0.562-0.077-0.173-0.173-0.337-0.288-0.49-0.019-0.173 0.005-0.332 0.072-0.476 0.058-0.154 0.12-0.303 0.188-0.447s0.125-0.288 0.173-0.433c0.038-0.154 0.029-0.327-0.029-0.519 0.096-0.058 0.159-0.125 0.188-0.202 0.038-0.077 0.063-0.154 0.072-0.231 0.019-0.087 0.043-0.163 0.072-0.231 0.029-0.077 0.096-0.139 0.202-0.188-0.077-0.231-0.067-0.399 0.029-0.505 0.106-0.115 0.231-0.216 0.375-0.303s0.279-0.183 0.404-0.289c0.125-0.106 0.173-0.264 0.144-0.476 0.058-0.058 0.125-0.106 0.202-0.144s0.149-0.072 0.216-0.101c0.077-0.038 0.149-0.077 0.216-0.115s0.13-0.091 0.188-0.159c-0.067-0.048-0.101-0.096-0.101-0.144 0.010-0.048 0.024-0.096 0.043-0.144 0.019-0.058 0.038-0.115 0.058-0.173 0.029-0.058 0.029-0.115 0-0.173 0.26 0.038 0.486 0.005 0.678-0.101 0.202-0.115 0.389-0.231 0.562-0.346 0.183-0.115 0.365-0.197 0.548-0.245s0.394 0.010 0.635 0.173c0.019 0.067 0.048 0.168 0.087 0.303 0.048 0.125 0.091 0.255 0.13 0.389 0.048 0.135 0.091 0.264 0.13 0.389s0.063 0.216 0.072 0.274c0 0.048 0 0.125 0 0.231s0 0.221 0 0.346c0 0.115 0 0.226 0 0.332s0 0.188 0 0.245c0.279 0.164 0.558 0.264 0.837 0.303 0.279 0.029 0.558-0.038 0.837-0.202 0.106 0.096 0.207 0.125 0.303 0.087 0.096-0.048 0.188-0.101 0.274-0.159 0.096-0.058 0.192-0.087 0.288-0.087 0.096-0.010 0.192 0.067 0.288 0.231 0.135-0.125 0.274-0.202 0.418-0.231 0.144-0.038 0.293-0.058 0.447-0.058 0.154-0.010 0.303-0.024 0.447-0.043 0.154-0.019 0.303-0.082 0.447-0.188zM12.126 15.409c0-0.144 0.024-0.298 0.072-0.462s0.087-0.322 0.115-0.476c0.029-0.163 0.024-0.317-0.014-0.462-0.029-0.144-0.12-0.274-0.274-0.389-0.106 0.058-0.192 0.139-0.26 0.245-0.067 0.096-0.135 0.197-0.202 0.303-0.067 0.096-0.149 0.178-0.245 0.245-0.086 0.067-0.202 0.087-0.346 0.058-0.048 0.115-0.048 0.212 0 0.289 0.048 0.067 0.106 0.135 0.173 0.202 0.067 0.058 0.13 0.12 0.188 0.188 0.067 0.067 0.091 0.154 0.072 0.26 0.038 0.029 0.091 0.058 0.159 0.087 0.067 0.019 0.135 0.034 0.202 0.043 0.077 0 0.149-0.010 0.216-0.029s0.115-0.053 0.144-0.101zM12.025 16.562c-0.192 0-0.361-0.043-0.505-0.13-0.135-0.096-0.274-0.202-0.418-0.317-0.135-0.115-0.279-0.221-0.433-0.317-0.144-0.106-0.322-0.168-0.534-0.188-0.086 0.115-0.188 0.226-0.303 0.332-0.115 0.096-0.216 0.202-0.303 0.317s-0.149 0.24-0.188 0.375c-0.029 0.135-0.005 0.288 0.072 0.462-0.221 0.106-0.37 0.26-0.447 0.462-0.077 0.192-0.13 0.404-0.159 0.635-0.019 0.231-0.038 0.462-0.058 0.692s-0.082 0.438-0.188 0.62l0.317-0.216c0.038 0.019 0.067 0.048 0.087 0.087 0.029 0.038 0.034 0.082 0.014 0.13 0.077-0.077 0.163-0.135 0.26-0.173 0.096-0.048 0.192-0.082 0.289-0.101 0.106-0.029 0.207-0.053 0.303-0.072 0.106-0.019 0.207-0.048 0.303-0.087 0.24 0.135 0.413 0.164 0.519 0.087s0.192-0.192 0.26-0.346c0.067-0.154 0.139-0.312 0.216-0.476 0.077-0.173 0.202-0.279 0.375-0.317l-0.101-0.101c0.163-0.202 0.308-0.409 0.433-0.62 0.135-0.221 0.197-0.466 0.188-0.736zM26.188 15.567c-0.106 0.135-0.188 0.284-0.245 0.447s-0.13 0.317-0.216 0.462c-0.077 0.144-0.178 0.264-0.303 0.361-0.115 0.096-0.279 0.14-0.49 0.13-0.154 0.058-0.269 0.164-0.346 0.317-0.067 0.144-0.135 0.293-0.202 0.447-0.067 0.144-0.154 0.264-0.26 0.361-0.106 0.087-0.264 0.096-0.476 0.029-0.269 0.115-0.514 0.269-0.735 0.462-0.212 0.183-0.413 0.375-0.606 0.577-0.067 0.067-0.144 0.154-0.231 0.26-0.086 0.096-0.168 0.168-0.245 0.216-0.067 0.038-0.135 0.043-0.202 0.014s-0.13-0.058-0.188-0.087c-0.058-0.038-0.115-0.058-0.173-0.058-0.048 0-0.091 0.043-0.13 0.13 0.067 0.135 0.082 0.226 0.043 0.274-0.038 0.058-0.101 0.101-0.188 0.13s-0.178 0.053-0.274 0.072c-0.096 0.019-0.173 0.053-0.231 0.101-0.115 0.106-0.197 0.236-0.245 0.389s-0.091 0.308-0.13 0.462c-0.038 0.154-0.096 0.298-0.173 0.433-0.067 0.144-0.183 0.255-0.346 0.332 0.096 0.067 0.135 0.135 0.115 0.202-0.010 0.067-0.034 0.135-0.072 0.202-0.038 0.077-0.067 0.149-0.086 0.216-0.010 0.067 0.029 0.135 0.115 0.202-0.144 0.183-0.274 0.38-0.389 0.591-0.106 0.212-0.212 0.423-0.317 0.635-0.106 0.221-0.221 0.433-0.346 0.635-0.115 0.212-0.264 0.399-0.447 0.562l0.043 0.346c-0.144-0.038-0.236-0.034-0.274 0.014-0.029 0.048-0.043 0.115-0.043 0.202s0 0.173 0 0.26c0.010 0.096-0.019 0.168-0.087 0.216-0.029 0.038-0.063 0.067-0.101 0.086-0.029 0.019-0.058 0.043-0.087 0.072-0.308 0.231-0.519 0.524-0.635 0.88-0.019 0.058-0.034 0.115-0.043 0.173s-0.024 0.12-0.043 0.188c-0.048 0.135-0.125 0.274-0.231 0.418s-0.221 0.293-0.346 0.447c-0.125 0.154-0.245 0.313-0.361 0.476-0.115 0.173-0.207 0.346-0.274 0.519-0.154-0.019-0.274-0.005-0.361 0.043-0.096 0.058-0.173 0.13-0.231 0.216-0.058 0.096-0.106 0.197-0.144 0.303s-0.086 0.197-0.144 0.274c-0.067 0.086-0.149 0.149-0.245 0.188-0.106 0.048-0.24 0.048-0.404 0l-0.649 0.591c-0.115-0.067-0.226-0.082-0.332-0.043-0.115 0.038-0.226 0.091-0.332 0.159-0.115 0.067-0.226 0.12-0.332 0.159-0.115 0.038-0.236 0.024-0.361-0.043-0.067 0.077-0.125 0.115-0.173 0.115-0.048 0.010-0.106-0.029-0.173-0.115l-0.216 0.231c-0.115-0.096-0.255-0.188-0.418-0.274-0.173-0.077-0.332-0.168-0.476-0.274-0.144-0.096-0.26-0.212-0.346-0.346-0.087-0.125-0.101-0.288-0.043-0.49-0.019-0.058-0.048-0.12-0.087-0.188-0.048-0.067-0.087-0.14-0.115-0.216-0.029-0.067-0.048-0.139-0.058-0.216-0.010-0.067 0.010-0.13 0.058-0.188-0.087-0.163-0.115-0.332-0.087-0.505 0.019-0.164 0.053-0.327 0.101-0.49s0.086-0.327 0.115-0.49c0.029-0.164 0-0.327-0.087-0.49 0.115-0.087 0.202-0.197 0.26-0.332 0.048-0.135 0.096-0.274 0.144-0.418 0.038-0.144 0.082-0.284 0.13-0.418s0.13-0.245 0.245-0.332l-0.014-0.231c0.452-0.481 0.933-0.923 1.442-1.327 0.5-0.394 1.067-0.688 1.702-0.88 0.125-0.221 0.289-0.385 0.49-0.49 0.202-0.096 0.409-0.188 0.62-0.274 0.202-0.077 0.389-0.178 0.563-0.303 0.173-0.115 0.303-0.303 0.389-0.563 0.048 0.106 0.096 0.149 0.144 0.13 0.048-0.010 0.096-0.034 0.144-0.072 0.058-0.029 0.111-0.053 0.159-0.072 0.048-0.010 0.096 0.034 0.144 0.13 0.096-0.288 0.25-0.519 0.462-0.692 0.221-0.173 0.462-0.327 0.721-0.462 0.269-0.125 0.538-0.25 0.808-0.375 0.269-0.115 0.505-0.26 0.707-0.433 0.212-0.173 0.37-0.385 0.476-0.635 0.106-0.26 0.13-0.591 0.072-0.995 0.087-0.058 0.144-0.13 0.173-0.216 0.029-0.096 0.048-0.192 0.058-0.288 0.019-0.096 0.043-0.183 0.072-0.26s0.091-0.13 0.188-0.159c-0.067-0.106-0.149-0.154-0.245-0.144s-0.197 0.038-0.303 0.087c-0.096 0.048-0.188 0.096-0.274 0.144s-0.159 0.058-0.216 0.029c-0.029 0.135-0.091 0.231-0.188 0.288-0.087 0.058-0.183 0.111-0.288 0.159-0.106 0.038-0.216 0.082-0.332 0.13s-0.207 0.125-0.274 0.231c-0.087-0.038-0.168-0.019-0.245 0.058-0.067 0.067-0.139 0.144-0.216 0.231-0.067 0.077-0.144 0.135-0.231 0.173s-0.188 0-0.303-0.115c-0.058 0.154-0.154 0.255-0.288 0.303-0.125 0.048-0.264 0.072-0.418 0.072s-0.313-0.010-0.476-0.029c-0.154-0.019-0.293-0.014-0.418 0.014l-0.245-0.245c-0.019 0.048-0.048 0.087-0.086 0.115-0.048 0.029-0.096 0.034-0.144 0.014-0.077-0.163-0.149-0.337-0.216-0.519-0.077-0.192-0.125-0.38-0.144-0.562-0.029-0.192-0.014-0.375 0.043-0.548 0.058-0.183 0.173-0.341 0.346-0.476 0.269-0.49 0.62-0.875 1.053-1.154 0.048 0.038 0.101 0.053 0.159 0.043 0.058-0.019 0.115-0.043 0.173-0.072 0.067-0.038 0.13-0.077 0.188-0.115 0.058-0.048 0.111-0.077 0.159-0.087 0.029-0.106 0.082-0.207 0.159-0.303 0.086-0.096 0.178-0.183 0.274-0.26 0.106-0.077 0.212-0.144 0.317-0.202 0.115-0.067 0.221-0.125 0.317-0.173 0.183-0.086 0.351-0.192 0.505-0.317 0.163-0.135 0.327-0.26 0.49-0.375 0.163-0.125 0.332-0.231 0.505-0.317s0.37-0.13 0.591-0.13l0.26 0.231c-0.163 0.096-0.308 0.216-0.433 0.361-0.115 0.135-0.236 0.274-0.361 0.418-0.125 0.135-0.26 0.26-0.404 0.375s-0.322 0.192-0.534 0.231c-0.173 0.337-0.409 0.625-0.707 0.865-0.288 0.231-0.587 0.447-0.894 0.649 0 0.144-0.043 0.26-0.13 0.346s-0.188 0.163-0.303 0.231c-0.115 0.067-0.231 0.13-0.346 0.188-0.115 0.048-0.212 0.115-0.288 0.202-0.067 0.077-0.101 0.178-0.101 0.303 0 0.115 0.063 0.269 0.188 0.462 0.115-0.058 0.255-0.096 0.418-0.115s0.322-0.043 0.476-0.072c0.154-0.038 0.288-0.091 0.404-0.159 0.125-0.077 0.212-0.192 0.26-0.346 0.135-0.115 0.279-0.188 0.433-0.216s0.313-0.034 0.476-0.014c0.317-0.346 0.635-0.663 0.952-0.952 0.327-0.298 0.635-0.601 0.923-0.909s0.553-0.635 0.793-0.981c0.25-0.356 0.466-0.764 0.649-1.226 0.192-0.058 0.365-0.034 0.519 0.072s0.264 0.24 0.332 0.404c-0.019 0.115-0.053 0.226-0.101 0.332-0.038 0.096-0.077 0.192-0.115 0.289-0.029 0.087-0.053 0.183-0.072 0.288-0.010 0.106 0.010 0.226 0.058 0.361-0.077-0.019-0.139 0.005-0.188 0.072-0.038 0.067-0.082 0.125-0.13 0.173 0.029 0.125 0.024 0.24-0.014 0.346-0.038 0.096-0.087 0.192-0.144 0.288-0.058 0.086-0.111 0.183-0.159 0.288-0.038 0.106-0.048 0.221-0.029 0.346-0.135 0.25-0.236 0.514-0.303 0.793-0.058 0.269-0.096 0.543-0.115 0.822l0.26 0.231c0.125-0.183 0.279-0.312 0.462-0.389 0.192-0.077 0.385-0.139 0.577-0.188 0.192-0.058 0.38-0.12 0.563-0.188 0.183-0.077 0.341-0.207 0.476-0.389 0.058-0.279 0.178-0.476 0.361-0.591 0.183-0.125 0.375-0.231 0.577-0.317s0.394-0.183 0.577-0.288c0.192-0.115 0.327-0.298 0.404-0.548h0.361c-0.019 0.048-0.010 0.091 0.029 0.13s0.072 0.072 0.101 0.101zM18.212 21.957c-0.096 0.058-0.202 0.111-0.317 0.159s-0.231 0.101-0.346 0.159-0.221 0.125-0.317 0.202c-0.096 0.077-0.168 0.173-0.216 0.288-0.106-0.058-0.207-0.062-0.303-0.014-0.087 0.058-0.173 0.12-0.26 0.188-0.087 0.077-0.178 0.139-0.274 0.188-0.087 0.048-0.183 0.043-0.288-0.014-0.183 0.115-0.356 0.24-0.519 0.375-0.173 0.135-0.346 0.264-0.519 0.39-0.173 0.135-0.351 0.255-0.534 0.361-0.192 0.115-0.394 0.202-0.606 0.26-0.106 0.173-0.245 0.308-0.418 0.404-0.173 0.106-0.346 0.207-0.519 0.303-0.183 0.096-0.346 0.212-0.49 0.346s-0.236 0.322-0.274 0.563c-0.298 0.192-0.5 0.438-0.606 0.736-0.115 0.308-0.178 0.63-0.188 0.966-0.010 0.346 0.005 0.692 0.043 1.038 0.038 0.356 0.058 0.678 0.058 0.966 0.125 0.144 0.25 0.245 0.375 0.303s0.255 0.087 0.389 0.087c0.135 0 0.274-0.019 0.418-0.058 0.135-0.029 0.284-0.058 0.447-0.086 0.038-0.144 0.111-0.24 0.216-0.288 0.096-0.038 0.202-0.067 0.317-0.087 0.106-0.019 0.207-0.048 0.303-0.086 0.087-0.029 0.135-0.106 0.144-0.231l0.13 0.115c0.010-0.154 0.053-0.284 0.13-0.389 0.077-0.096 0.168-0.188 0.274-0.274s0.221-0.168 0.346-0.245c0.115-0.077 0.216-0.163 0.303-0.26-0.019-0.183 0.014-0.337 0.101-0.462s0.183-0.24 0.288-0.346 0.202-0.221 0.288-0.346c0.077-0.125 0.106-0.284 0.086-0.476 0.096-0.038 0.164-0.101 0.202-0.188s0.077-0.168 0.115-0.245c0.038-0.077 0.086-0.135 0.144-0.173 0.067-0.038 0.168-0.029 0.303 0.029-0.135-0.106-0.192-0.188-0.173-0.245 0.029-0.058 0.077-0.111 0.144-0.159 0.067-0.038 0.13-0.087 0.188-0.144s0.058-0.144 0-0.26c0.231-0.096 0.38-0.236 0.447-0.418s0.115-0.38 0.144-0.591c0.038-0.202 0.091-0.404 0.159-0.606 0.067-0.192 0.216-0.346 0.447-0.462-0.019-0.173 0.010-0.327 0.087-0.462 0.087-0.125 0.168-0.245 0.245-0.361 0.087-0.115 0.144-0.236 0.173-0.361 0.038-0.125 0.005-0.274-0.101-0.447l-0.188 0.361zM35.159 15.164c0.038 0.144 0.024 0.269-0.043 0.375-0.067 0.096-0.159 0.183-0.274 0.26-0.106 0.077-0.226 0.149-0.361 0.216-0.125 0.058-0.231 0.125-0.317 0.202-0.433 0.096-0.827 0.168-1.183 0.216-0.346 0.038-0.731 0.091-1.154 0.159-0.125 0.019-0.245 0.019-0.361 0-0.106-0.029-0.216-0.038-0.332-0.029-0.067 0-0.13 0-0.188 0-0.058-0.010-0.115-0.010-0.173 0-0.221 0.019-0.365 0.096-0.433 0.231-0.067 0.125-0.125 0.274-0.173 0.447-0.038 0.163-0.091 0.322-0.159 0.476-0.058 0.144-0.188 0.245-0.389 0.303-0.019 0.048-0.014 0.091 0.014 0.13 0.038 0.038 0.067 0.072 0.086 0.101-0.163 0.048-0.274 0.135-0.332 0.26-0.048 0.125-0.091 0.25-0.13 0.375s-0.096 0.231-0.173 0.317c-0.067 0.087-0.202 0.115-0.404 0.087-0.298 0.317-0.649 0.572-1.053 0.764-0.404 0.202-0.822 0.332-1.255 0.389-0.077-0.038-0.154-0.087-0.231-0.144-0.067-0.058-0.14-0.111-0.216-0.159-0.067-0.048-0.144-0.086-0.231-0.115-0.077-0.019-0.168-0.019-0.274 0-0.010-0.202-0.048-0.389-0.115-0.562-0.077-0.173-0.173-0.337-0.288-0.49-0.019-0.173 0.005-0.332 0.072-0.476 0.058-0.154 0.12-0.303 0.188-0.447s0.125-0.288 0.173-0.433c0.038-0.154 0.029-0.327-0.029-0.519 0.096-0.058 0.159-0.125 0.188-0.202 0.038-0.077 0.062-0.154 0.072-0.231 0.019-0.087 0.043-0.163 0.072-0.231 0.029-0.077 0.096-0.139 0.202-0.188-0.077-0.231-0.067-0.399 0.029-0.505 0.106-0.115 0.231-0.216 0.375-0.303s0.279-0.183 0.404-0.289c0.125-0.106 0.173-0.264 0.144-0.476 0.058-0.058 0.125-0.106 0.202-0.144s0.149-0.072 0.216-0.101c0.077-0.038 0.149-0.077 0.216-0.115s0.13-0.091 0.188-0.159c-0.067-0.048-0.101-0.096-0.101-0.144 0.010-0.048 0.024-0.096 0.043-0.144 0.019-0.058 0.038-0.115 0.058-0.173 0.029-0.058 0.029-0.115 0-0.173 0.26 0.038 0.485 0.005 0.678-0.101 0.202-0.115 0.389-0.231 0.563-0.346 0.183-0.115 0.365-0.197 0.548-0.245s0.394 0.010 0.635 0.173c0.019 0.067 0.048 0.168 0.086 0.303 0.048 0.125 0.091 0.255 0.13 0.389 0.048 0.135 0.091 0.264 0.13 0.389s0.062 0.216 0.072 0.274c0 0.048 0 0.125 0 0.231s0 0.221 0 0.346c0 0.115 0 0.226 0 0.332s0 0.188 0 0.245c0.279 0.164 0.558 0.264 0.837 0.303 0.279 0.029 0.558-0.038 0.837-0.202 0.106 0.096 0.207 0.125 0.303 0.087 0.096-0.048 0.188-0.101 0.274-0.159 0.096-0.058 0.192-0.087 0.288-0.087 0.096-0.010 0.192 0.067 0.288 0.231 0.135-0.125 0.274-0.202 0.418-0.231 0.144-0.038 0.293-0.058 0.447-0.058 0.154-0.010 0.303-0.024 0.447-0.043 0.154-0.019 0.303-0.082 0.447-0.188zM29.621 15.409c0-0.144 0.024-0.298 0.072-0.462s0.086-0.322 0.115-0.476c0.029-0.163 0.024-0.317-0.014-0.462-0.029-0.144-0.12-0.274-0.274-0.389-0.106 0.058-0.192 0.139-0.26 0.245-0.067 0.096-0.135 0.197-0.202 0.303-0.067 0.096-0.149 0.178-0.245 0.245-0.087 0.067-0.202 0.087-0.346 0.058-0.048 0.115-0.048 0.212 0 0.289 0.048 0.067 0.106 0.135 0.173 0.202 0.067 0.058 0.13 0.12 0.188 0.188 0.067 0.067 0.091 0.154 0.072 0.26 0.038 0.029 0.091 0.058 0.159 0.087 0.067 0.019 0.135 0.034 0.202 0.043 0.077 0 0.149-0.010 0.216-0.029s0.115-0.053 0.144-0.101zM29.52 16.562c-0.192 0-0.361-0.043-0.505-0.13-0.135-0.096-0.274-0.202-0.418-0.317-0.135-0.115-0.279-0.221-0.433-0.317-0.144-0.106-0.322-0.168-0.534-0.188-0.087 0.115-0.188 0.226-0.303 0.332-0.115 0.096-0.216 0.202-0.303 0.317s-0.149 0.24-0.188 0.375c-0.029 0.135-0.005 0.288 0.072 0.462-0.221 0.106-0.37 0.26-0.447 0.462-0.077 0.192-0.13 0.404-0.159 0.635-0.019 0.231-0.038 0.462-0.058 0.692s-0.082 0.438-0.188 0.62l0.317-0.216c0.038 0.019 0.067 0.048 0.087 0.087 0.029 0.038 0.034 0.082 0.014 0.13 0.077-0.077 0.163-0.135 0.26-0.173 0.096-0.048 0.192-0.082 0.288-0.101 0.106-0.029 0.207-0.053 0.303-0.072 0.106-0.019 0.207-0.048 0.303-0.087 0.24 0.135 0.413 0.164 0.519 0.087s0.192-0.192 0.26-0.346c0.067-0.154 0.139-0.312 0.216-0.476 0.077-0.173 0.202-0.279 0.375-0.317l-0.101-0.101c0.163-0.202 0.308-0.409 0.433-0.62 0.135-0.221 0.197-0.466 0.188-0.736z"></path>
</symbol>
</defs>
</svg>
